# xmcd
#
# Track frame offsets:
#	150
#	14588
#	29068
#	46266
#	62710
#	80041
#	100361
#	115389
#	134930
#	148117
#	164115
#	180602
#	201022
#
# Disc length: 3000 seconds
#
# Revision: 1
# Processed by: cddbd v1.4PL0 Copyright (c) Steve Scherf et al.
# Submitted via: audiograbber 1.80
#
DISCID=ce0bb60d
DTITLE=Feeder - Echo Park
DYEAR=1900
DGENRE=
TTITLE0=Standing On The Edge
TTITLE1=Buck Rogers
TTITLE2=Piece By Piece
TTITLE3=Seven Days In The Sun
TTITLE4=We Can't Rewind
TTITLE5=Turn
TTITLE6=Choke
TTITLE7=Oxygen
TTITLE8=Tell All Your Friends
TTITLE9=Under The Weather
TTITLE10=Bug
TTITLE11=High
TTITLE12=Descend
EXTD=
EXTT0=
EXTT1=
EXTT2=
EXTT3=
EXTT4=
EXTT5=
EXTT6=
EXTT7=
EXTT8=
EXTT9=
EXTT10=
EXTT11=
EXTT12=
PLAYORDER=
